<svg width="696" height="696" viewBox="0 0 696 696" fill="none" xmlns="http://www.w3.org/2000/svg">
<path d="M77 348C77 402.369 98.5981 454.512 137.043 492.957C175.488 531.402 227.631 553 282 553C336.369 553 388.512 531.402 426.957 492.957C465.402 454.512 487 402.369 487 348L446 348C446 391.496 428.721 433.21 397.966 463.966C367.21 494.721 325.495 512 282 512C238.504 512 196.79 494.721 166.034 463.965C135.279 433.21 118 391.495 118 348L77 348Z" fill="black"/>
<path d="M619 307C619 269.339 603.565 233.221 576.091 206.591C548.617 179.961 511.354 165 472.5 165C433.646 165 396.383 179.961 368.909 206.591C341.435 233.221 326 269.339 326 307H355.3C355.3 276.871 367.648 247.977 389.627 226.673C411.606 205.369 441.417 193.4 472.5 193.4C503.583 193.4 533.394 205.369 555.373 226.673C577.352 247.977 589.7 276.871 589.7 307H619Z" fill="black"/>
</svg>
