<svg width="30" height="30" viewBox="0 0 30 30" fill="none" xmlns="http://www.w3.org/2000/svg">
    <path
        d="M28.125 14.918C28.125 14.8535 28.125 14.7803 28.1221 14.6953C28.1191 14.458 28.1133 14.1914 28.1074 13.9072C28.084 13.0898 28.043 12.2754 27.9785 11.5078C27.8906 10.4502 27.7617 9.56836 27.5859 8.90625C27.4004 8.21528 27.0368 7.5851 26.5315 7.0787C26.0261 6.5723 25.3966 6.20741 24.7061 6.02051C23.877 5.79785 22.2539 5.66016 19.9687 5.5752C18.8818 5.53418 17.7187 5.50781 16.5557 5.49316C16.1484 5.4873 15.7705 5.48438 15.4307 5.48145H14.5693C14.2295 5.48438 13.8516 5.4873 13.4443 5.49316C12.2812 5.50781 11.1182 5.53418 10.0312 5.5752C7.74609 5.66309 6.12012 5.80078 5.29395 6.02051C4.60313 6.20695 3.97345 6.57169 3.468 7.07816C2.96256 7.58463 2.5991 8.21505 2.41406 8.90625C2.23535 9.56836 2.10938 10.4502 2.02148 11.5078C1.95703 12.2754 1.91602 13.0898 1.89258 13.9072C1.88379 14.1914 1.88086 14.458 1.87793 14.6953C1.87793 14.7803 1.875 14.8535 1.875 14.918V15.082C1.875 15.1465 1.875 15.2197 1.87793 15.3047C1.88086 15.542 1.88672 15.8086 1.89258 16.0928C1.91602 16.9102 1.95703 17.7246 2.02148 18.4922C2.10938 19.5498 2.23828 20.4316 2.41406 21.0938C2.78906 22.4971 3.89062 23.6045 5.29395 23.9795C6.12012 24.2021 7.74609 24.3398 10.0312 24.4248C11.1182 24.4658 12.2812 24.4922 13.4443 24.5068C13.8516 24.5127 14.2295 24.5156 14.5693 24.5186H15.4307C15.7705 24.5156 16.1484 24.5127 16.5557 24.5068C17.7187 24.4922 18.8818 24.4658 19.9687 24.4248C22.2539 24.3369 23.8799 24.1992 24.7061 23.9795C26.1094 23.6045 27.2109 22.5 27.5859 21.0938C27.7646 20.4316 27.8906 19.5498 27.9785 18.4922C28.043 17.7246 28.084 16.9102 28.1074 16.0928C28.1162 15.8086 28.1191 15.542 28.1221 15.3047C28.1221 15.2197 28.125 15.1465 28.125 15.082V14.918ZM26.0156 15.0703C26.0156 15.1318 26.0156 15.1992 26.0127 15.2783C26.0098 15.5068 26.0039 15.7588 25.998 16.0313C25.9775 16.8105 25.9365 17.5898 25.875 18.3135C25.7959 19.2568 25.6846 20.0303 25.5469 20.5488C25.3652 21.2256 24.832 21.7617 24.1582 21.9404C23.543 22.1045 21.9932 22.2363 19.8867 22.3154C18.8203 22.3564 17.6719 22.3828 16.5264 22.3975C16.125 22.4033 15.7529 22.4062 15.4189 22.4062H14.5811L13.4736 22.3975C12.3281 22.3828 11.1826 22.3564 10.1133 22.3154C8.00684 22.2334 6.4541 22.1045 5.8418 21.9404C5.16797 21.7588 4.63477 21.2256 4.45312 20.5488C4.31543 20.0303 4.2041 19.2568 4.125 18.3135C4.06348 17.5898 4.02539 16.8105 4.00195 16.0313C3.99316 15.7588 3.99023 15.5039 3.9873 15.2783C3.9873 15.1992 3.98438 15.1289 3.98438 15.0703V14.9297C3.98438 14.8682 3.98438 14.8008 3.9873 14.7217C3.99023 14.4932 3.99609 14.2412 4.00195 13.9687C4.02246 13.1895 4.06348 12.4102 4.125 11.6865C4.2041 10.7432 4.31543 9.96973 4.45312 9.45117C4.63477 8.77441 5.16797 8.23828 5.8418 8.05957C6.45703 7.89551 8.00684 7.76367 10.1133 7.68457C11.1797 7.64355 12.3281 7.61719 13.4736 7.60254C13.875 7.59668 14.2471 7.59375 14.5811 7.59375H15.4189L16.5264 7.60254C17.6719 7.61719 18.8174 7.64355 19.8867 7.68457C21.9932 7.7666 23.5459 7.89551 24.1582 8.05957C24.832 8.24121 25.3652 8.77441 25.5469 9.45117C25.6846 9.96973 25.7959 10.7432 25.875 11.6865C25.9365 12.4102 25.9746 13.1895 25.998 13.9687C26.0068 14.2412 26.0098 14.4961 26.0127 14.7217C26.0127 14.8008 26.0156 14.8711 26.0156 14.9297V15.0703ZM12.3926 18.9258L19.1895 14.9707L12.3926 11.0742V18.9258Z"
        fill="white" fill-opacity="0.69" />
</svg> 