<?xml version="1.0" encoding="UTF-8"?>
<svg xmlns="http://www.w3.org/2000/svg" xmlns:xlink="http://www.w3.org/1999/xlink" width="98px" height="75px" viewBox="0 0 98 75" version="1.1">
<g id="surface1">
<path style=" stroke:none;fill-rule:evenodd;fill:rgb(100%,100%,100%);fill-opacity:1;" d="M 60.214844 37.644531 C 59.308594 37.910156 58.371094 38.15625 57.410156 38.355469 L 57.410156 62.441406 L 60.214844 60.359375 L 63.019531 58.273438 L 65.824219 56.195312 L 68.636719 54.121094 L 68.636719 37.027344 C 67.757812 37.59375 66.820312 38.117188 65.824219 38.605469 C 64.929688 39.046875 63.992188 39.445312 63.019531 39.816406 L 63.019531 42.976562 C 63.984375 42.632812 64.921875 42.265625 65.824219 41.855469 L 65.824219 52.804688 L 63.015625 54.890625 L 60.207031 56.964844 L 60.207031 37.636719 L 60.214844 37.636719 Z M 57.414062 29.273438 C 58.421875 29.058594 59.359375 28.808594 60.222656 28.527344 L 60.222656 16.339844 C 61.226562 16.667969 62.171875 17.046875 63.027344 17.457031 C 63.160156 17.511719 63.273438 17.574219 63.394531 17.640625 C 64.308594 18.105469 65.128906 18.621094 65.824219 19.15625 C 65.84375 19.164062 65.847656 19.167969 65.863281 19.1875 C 67.617188 20.566406 68.628906 22.183594 68.628906 23.917969 C 68.628906 25.660156 67.605469 27.285156 65.820312 28.679688 C 65.019531 29.296875 64.078125 29.863281 63.015625 30.378906 C 62.15625 30.789062 61.214844 31.160156 60.207031 31.496094 C 59.324219 31.785156 58.386719 32.042969 57.398438 32.261719 C 56.5 32.464844 55.566406 32.632812 54.59375 32.765625 C 52.824219 33.019531 50.949219 33.144531 49.011719 33.144531 C 47.074219 33.144531 45.199219 33.019531 43.4375 32.765625 L 43.4375 35.808594 C 45.222656 36.058594 47.089844 36.191406 49.011719 36.191406 C 50.9375 36.191406 52.804688 36.058594 54.59375 35.808594 C 55.558594 35.671875 56.492188 35.503906 57.398438 35.304688 C 58.371094 35.089844 59.308594 34.835938 60.207031 34.546875 C 61.191406 34.246094 62.128906 33.890625 63.015625 33.496094 C 64.027344 33.054688 64.964844 32.570312 65.820312 32.03125 C 66.894531 31.367188 67.835938 30.636719 68.628906 29.859375 C 70.417969 28.09375 71.433594 26.074219 71.433594 23.910156 C 71.433594 21.742188 70.417969 19.722656 68.628906 17.960938 C 68.46875 17.800781 68.304688 17.644531 68.136719 17.496094 C 67.460938 16.882812 66.703125 16.335938 65.855469 15.800781 L 65.835938 15.820312 L 65.835938 15.792969 C 64.980469 15.257812 64.039062 14.769531 63.027344 14.328125 C 62.566406 14.121094 62.070312 13.9375 61.582031 13.742188 C 61.140625 13.574219 60.6875 13.429688 60.238281 13.277344 C 59.328125 13 58.394531 12.742188 57.421875 12.53125 L 57.421875 29.273438 Z M 35.039062 33.492188 C 34.03125 33.050781 33.089844 32.558594 32.226562 32.023438 C 31.15625 31.355469 30.214844 30.625 29.421875 29.851562 C 27.640625 28.09375 26.621094 26.066406 26.621094 23.910156 C 26.621094 21.742188 27.640625 19.722656 29.429688 17.960938 C 29.589844 17.800781 29.753906 17.644531 29.925781 17.496094 C 30.601562 16.882812 31.359375 16.335938 32.210938 15.800781 L 32.226562 15.820312 L 32.226562 15.792969 C 33.089844 15.257812 34.03125 14.769531 35.039062 14.328125 C 35.503906 14.121094 35.992188 13.9375 36.484375 13.742188 C 36.917969 13.574219 37.375 13.429688 37.832031 13.277344 C 38.726562 13 39.664062 12.742188 40.636719 12.53125 L 40.636719 38.351562 C 39.671875 38.140625 38.734375 37.910156 37.832031 37.636719 L 37.832031 16.339844 C 36.820312 16.667969 35.886719 17.046875 35.019531 17.457031 C 34.898438 17.511719 34.777344 17.574219 34.65625 17.640625 C 33.742188 18.105469 32.921875 18.621094 32.226562 19.15625 C 32.214844 19.164062 32.203125 19.167969 32.191406 19.1875 C 30.429688 20.566406 29.421875 22.183594 29.421875 23.917969 C 29.421875 25.660156 30.445312 27.285156 32.226562 28.679688 C 33.019531 29.296875 33.960938 29.863281 35.039062 30.378906 L 35.039062 33.496094 Z M 40.644531 47.597656 C 39.695312 47.410156 38.757812 47.207031 37.835938 46.96875 L 37.835938 50.027344 C 37.835938 55.980469 37.835938 51.015625 37.835938 56.976562 L 35.03125 54.890625 L 32.222656 52.816406 L 32.222656 41.863281 C 33.128906 42.265625 34.066406 42.636719 35.03125 42.984375 L 35.03125 39.824219 C 35.933594 40.167969 36.871094 40.476562 37.835938 40.753906 C 38.75 41.011719 39.6875 41.238281 40.644531 41.433594 C 41.558594 41.621094 42.492188 41.78125 43.453125 41.90625 C 45.257812 42.140625 47.121094 42.269531 49.027344 42.269531 C 50.9375 42.269531 52.804688 42.140625 54.605469 41.90625 L 54.605469 44.964844 C 52.792969 45.1875 50.925781 45.316406 49.027344 45.316406 C 47.125 45.316406 45.257812 45.1875 43.453125 44.964844 C 42.5 44.84375 41.5625 44.699219 40.644531 44.519531 C 39.6875 44.316406 38.75 44.117188 37.835938 43.863281 C 36.878906 43.613281 35.945312 43.3125 35.03125 42.996094 L 35.03125 39.835938 C 34.058594 39.464844 33.125 39.0625 32.222656 38.621094 C 31.238281 38.136719 30.300781 37.605469 29.414062 37.042969 L 29.414062 54.121094 L 32.222656 56.195312 L 35.03125 58.273438 L 37.835938 60.359375 L 40.644531 62.441406 L 40.644531 59.0625 C 40.644531 52.414062 40.644531 56.679688 40.644531 50.027344 Z M 40.644531 47.597656 "/>
</g>
</svg>
