<svg width="78" height="59" viewBox="0 0 78 59" fill="none" xmlns="http://www.w3.org/2000/svg">
<path d="M-1.23573e-06 29.5C-1.91971e-06 37.3239 3.10803 44.8273 8.64035 50.3596C14.1727 55.892 21.6761 59 29.5 59C37.3239 59 44.8273 55.892 50.3596 50.3597C55.892 44.8273 59 37.3239 59 29.5L53.1 29.5C53.1 35.7591 50.6136 41.7619 46.1877 46.1877C41.7619 50.6136 35.7591 53.1 29.5 53.1C23.2409 53.1 17.2381 50.6136 12.8123 46.1877C8.38642 41.7619 5.9 35.7591 5.9 29.5L-1.23573e-06 29.5Z" fill="#FFFFFF"/>
<path d="M78 23.5C78 18.0631 75.7875 12.8488 71.8492 9.00431C67.911 5.15982 62.5695 3 57 3C51.4305 3 46.089 5.15981 42.1508 9.00431C38.2125 12.8488 36 18.0631 36 23.5L40.2 23.5C40.2 19.1504 41.97 14.979 45.1206 11.9034C48.2712 8.82785 52.5444 7.1 57 7.1C61.4556 7.1 65.7288 8.82785 68.8794 11.9034C72.03 14.979 73.8 19.1504 73.8 23.5H78Z" fill="#FFFFFF"/>
</svg> 